{
  "accessors": [
    {
      "bufferView": 2,
      "componentType": 5126,
      "count": 37093,
      "max": [
        4.792803764343262,
        2.48534893989563,
        13.319742202758789
      ],
      "min": [
        -16.051292419433594,
        -22.602584838867188,
        -12.703676223754883
      ],
      "type": "VEC3"
    },
    {
      "bufferView": 2,
      "byteOffset": 445116,
      "componentType": 5126,
      "count": 37093,
      "max": [
        0.9999989867210388,
        0.9367992877960205,
        0.9999919533729553
      ],
      "min": [
        -0.9981614351272583,
        -0.9999939203262329,
        -0.9999382495880127
      ],
      "type": "VEC3"
    },
    {
      "bufferView": 3,
      "componentType": 5126,
      "count": 37093,
      "max": [
        0.7529410123825073,
        0.7529410123825073,
        0.7529410123825073,
        1.0
      ],
      "min": [
        0.7529410123825073,
        0.7529410123825073,
        0.7529410123825073,
        1.0
      ],
      "type": "VEC4"
    },
    {
      "bufferView": 1,
      "componentType": 5126,
      "count": 37093,
      "max": [
        0.9942860007286072,
        0.9993259906768799
      ],
      "min": [
        0.0020099999383091927,
        0.03471500054001808
      ],
      "type": "VEC2"
    },
    {
      "bufferView": 0,
      "componentType": 5125,
      "count": 218175,
      "type": "SCALAR"
    },
    {
      "bufferView": 2,
      "byteOffset": 890232,
      "componentType": 5126,
      "count": 30035,
      "max": [
        11.772798538208008,
        2.4865190982818604,
        12.652501106262207
      ],
      "min": [
        -15.355255126953125,
        -22.47846221923828,
        -13.706436157226563
      ],
      "type": "VEC3"
    },
    {
      "bufferView": 2,
      "byteOffset": 1250652,
      "componentType": 5126,
      "count": 30035,
      "max": [
        0.9999669194221497,
        0.9025519490242004,
        0.9999971985816956
      ],
      "min": [
        -0.9998571872711182,
        -0.9999995231628418,
        -0.9999502897262573
      ],
      "type": "VEC3"
    },
    {
      "bufferView": 3,
      "byteOffset": 593488,
      "componentType": 5126,
      "count": 30035,
      "max": [
        0.7529410123825073,
        0.7529410123825073,
        0.7529410123825073,
        1.0
      ],
      "min": [
        0.7529410123825073,
        0.7529410123825073,
        0.7529410123825073,
        1.0
      ],
      "type": "VEC4"
    },
    {
      "bufferView": 1,
      "byteOffset": 296744,
      "componentType": 5126,
      "count": 30035,
      "max": [
        0.9390569925308228,
        0.997967004776001
      ],
      "min": [
        0.0019950000569224358,
        0.04534199833869934
      ],
      "type": "VEC2"
    },
    {
      "bufferView": 0,
      "byteOffset": 872700,
      "componentType": 5125,
      "count": 174888,
      "type": "SCALAR"
    },
    {
      "bufferView": 2,
      "byteOffset": 1611072,
      "componentType": 5126,
      "count": 79,
      "max": [
        0.12837299704551697,
        -20.05862045288086,
        4.756344795227051
      ],
      "min": [
        -8.476726531982422,
        -22.297351837158203,
        -2.3603720664978027
      ],
      "type": "VEC3"
    },
    {
      "bufferView": 2,
      "byteOffset": 1612020,
      "componentType": 5126,
      "count": 79,
      "max": [
        0.24429066479206085,
        -0.33460450172424316,
        0.8158652186393738
      ],
      "min": [
        -0.8020180463790894,
        -0.9947710037231445,
        -0.3139043152332306
      ],
      "type": "VEC3"
    },
    {
      "bufferView": 3,
      "byteOffset": 1074048,
      "componentType": 5126,
      "count": 79,
      "max": [
        0.7529410123825073,
        0.7529410123825073,
        0.7529410123825073,
        1.0
      ],
      "min": [
        0.7529410123825073,
        0.7529410123825073,
        0.7529410123825073,
        1.0
      ],
      "type": "VEC4"
    },
    {
      "bufferView": 1,
      "byteOffset": 537024,
      "componentType": 5126,
      "count": 79,
      "max": [
        0.18605899810791016,
        0.17574100196361542
      ],
      "min": [
        0.18605899810791016,
        0.17574100196361542
      ],
      "type": "VEC2"
    },
    {
      "bufferView": 0,
      "byteOffset": 1572252,
      "componentType": 5125,
      "count": 249,
      "type": "SCALAR"
    }
  ],
  "asset": {
    "extras": {
      "author": "alban (https://sketchfab.com/alban)",
      "license": "CC-BY-4.0 (http://creativecommons.org/licenses/by/4.0/)",
      "source": "https://sketchfab.com/3d-models/london-phone-booth-0c21f6ac8d44452197751910527c3b0f",
      "title": "London phone booth"
    },
    "generator": "Sketchfab-12.64.0",
    "version": "2.0"
  },
  "bufferViews": [
    {
      "buffer": 0,
      "byteLength": 1573248,
      "name": "floatBufferViews",
      "target": 34963
    },
    {
      "buffer": 0,
      "byteLength": 537656,
      "byteOffset": 1573248,
      "byteStride": 8,
      "name": "floatBufferViews",
      "target": 34962
    },
    {
      "buffer": 0,
      "byteLength": 1612968,
      "byteOffset": 2110904,
      "byteStride": 12,
      "name": "floatBufferViews",
      "target": 34962
    },
    {
      "buffer": 0,
      "byteLength": 1075312,
      "byteOffset": 3723872,
      "byteStride": 16,
      "name": "floatBufferViews",
      "target": 34962
    }
  ],
  "buffers": [
    {
      "byteLength": 4799184,
      "uri": "scene.bin"
    }
  ],
  "extensionsUsed": [
    "KHR_materials_unlit"
  ],
  "images": [
    {
      "uri": "textures/material_0_baseColor.jpeg"
    },
    {
      "uri": "textures/material_1_baseColor.jpeg"
    }
  ],
  "materials": [
    {
      "doubleSided": true,
      "extensions": {
        "KHR_materials_unlit": {}
      },
      "name": "material_0",
      "pbrMetallicRoughness": {
        "baseColorTexture": {
          "index": 0
        },
        "metallicFactor": 0.0
      }
    },
    {
      "doubleSided": true,
      "extensions": {
        "KHR_materials_unlit": {}
      },
      "name": "material_1",
      "pbrMetallicRoughness": {
        "baseColorTexture": {
          "index": 1
        },
        "metallicFactor": 0.0
      }
    },
    {
      "doubleSided": true,
      "extensions": {
        "KHR_materials_unlit": {}
      },
      "name": "material_2",
      "pbrMetallicRoughness": {
        "baseColorFactor": [
          0.501961,
          0.501961,
          0.501961,
          1.0
        ],
        "metallicFactor": 0.0
      }
    }
  ],
  "meshes": [
    {
      "name": "Object_0",
      "primitives": [
        {
          "attributes": {
            "COLOR_0": 2,
            "NORMAL": 1,
            "POSITION": 0,
            "TEXCOORD_0": 3
          },
          "indices": 4,
          "material": 0,
          "mode": 4
        }
      ]
    },
    {
      "name": "Object_1",
      "primitives": [
        {
          "attributes": {
            "COLOR_0": 7,
            "NORMAL": 6,
            "POSITION": 5,
            "TEXCOORD_0": 8
          },
          "indices": 9,
          "material": 1,
          "mode": 4
        }
      ]
    },
    {
      "name": "Object_2",
      "primitives": [
        {
          "attributes": {
            "COLOR_0": 12,
            "NORMAL": 11,
            "POSITION": 10,
            "TEXCOORD_0": 13
          },
          "indices": 14,
          "material": 2,
          "mode": 4
        }
      ]
    }
  ],
  "nodes": [
    {
      "children": [
        1
      ],
      "matrix": [
        1.0,
        0.0,
        0.0,
        0.0,
        0.0,
        -1.0,
        -3.834759027214593e-17,
        0.0,
        0.0,
        3.834759027214593e-17,
        -1.0,
        0.0,
        0.0,
        0.0,
        0.0,
        1.0
      ],
      "name": "Sketchfab_model"
    },
    {
      "children": [
        2,
        3,
        4
      ],
      "name": "mesh.obj.cleaner"
    },
    {
      "mesh": 0,
      "name": "Object_2"
    },
    {
      "mesh": 1,
      "name": "Object_3"
    },
    {
      "mesh": 2,
      "name": "Object_4"
    }
  ],
  "samplers": [
    {
      "magFilter": 9729,
      "minFilter": 9987,
      "wrapS": 10497,
      "wrapT": 10497
    }
  ],
  "scene": 0,
  "scenes": [
    {
      "name": "Sketchfab_Scene",
      "nodes": [
        0
      ]
    }
  ],
  "textures": [
    {
      "sampler": 0,
      "source": 0
    },
    {
      "sampler": 0,
      "source": 1
    }
  ]
}
